<svg width="26" height="26" viewBox="0 0 26 26" fill="none" xmlns="http://www.w3.org/2000/svg">
<path fill-rule="evenodd" clip-rule="evenodd" d="M13.0279 2.16663C7.05986 2.16663 2.22278 7.00371 2.22278 12.9718C2.22278 17.745 5.31786 21.7955 9.61219 23.2255C10.1528 23.323 10.3478 22.9905 10.3478 22.7045C10.3478 22.4477 10.3391 21.7674 10.3359 20.8671C7.32961 21.5193 6.69478 19.4176 6.69478 19.4176C6.20511 18.1696 5.49553 17.837 5.49553 17.837C4.51511 17.1665 5.57028 17.1816 5.57028 17.1816C6.65578 17.2575 7.22453 18.2953 7.22453 18.2953C8.18869 19.9463 9.75519 19.4696 10.3684 19.1934C10.4669 18.4946 10.7486 18.018 11.0563 17.7482C8.65778 17.4763 6.13578 16.549 6.13578 12.4074C6.13578 11.2298 6.55719 10.2635 7.24511 9.50946C7.13569 9.23538 6.76194 8.13579 7.35236 6.64946C7.35236 6.64946 8.25911 6.35804 10.3229 7.75554C11.2043 7.51577 12.1134 7.39338 13.0269 7.39154C13.9403 7.39302 14.8495 7.51542 15.7309 7.75554C17.7957 6.35696 18.7014 6.64946 18.7014 6.64946C19.2918 8.13579 18.9213 9.23538 18.8086 9.50946C19.5019 10.2635 19.9179 11.2287 19.9179 12.4074C19.9179 16.5598 17.3938 17.472 14.9866 17.7395C15.3712 18.0732 15.7179 18.7319 15.7179 19.7394C15.7179 21.1845 15.7049 22.3502 15.7049 22.7045C15.7049 22.9937 15.8977 23.3295 16.4491 23.2234C20.7413 21.7912 23.8331 17.7439 23.8331 12.9718C23.8331 7.00371 18.996 2.16663 13.0279 2.16663Z" fill="#CCCCCC"/>
</svg>
