<svg width="26" height="26" viewBox="0 0 26 26" fill="none" xmlns="http://www.w3.org/2000/svg">
<path d="M21.6667 3.25H4.33333C4.04602 3.25 3.77047 3.36414 3.5673 3.5673C3.36414 3.77047 3.25 4.04602 3.25 4.33333V21.6667C3.25 21.954 3.36414 22.2295 3.5673 22.4327C3.77047 22.6359 4.04602 22.75 4.33333 22.75H21.6667C21.954 22.75 22.2295 22.6359 22.4327 22.4327C22.6359 22.2295 22.75 21.954 22.75 21.6667V4.33333C22.75 4.04602 22.6359 3.77047 22.4327 3.5673C22.2295 3.36414 21.954 3.25 21.6667 3.25ZM9.03392 19.8651H6.13925V10.5592H9.03392V19.8651ZM7.58658 9.2885C7.14182 9.2885 6.71526 9.11182 6.40077 8.79732C6.08627 8.48282 5.90958 8.05627 5.90958 7.6115C5.90958 7.16673 6.08627 6.74018 6.40077 6.42568C6.71526 6.11118 7.14182 5.9345 7.58658 5.9345C8.03135 5.9345 8.4579 6.11118 8.7724 6.42568C9.0869 6.74018 9.26358 7.16673 9.26358 7.6115C9.26358 8.05627 9.0869 8.48282 8.7724 8.79732C8.4579 9.11182 8.03135 9.2885 7.58658 9.2885ZM19.8662 19.8651H16.9748V15.34C16.9748 14.261 16.9553 12.8733 15.4711 12.8733C13.9653 12.8733 13.7367 14.0498 13.7367 15.2642V19.8662H10.8474V10.5603H13.6208V11.8322H13.6608C14.0454 11.1009 14.9901 10.3296 16.3952 10.3296C19.3245 10.3296 19.8651 12.2558 19.8651 14.7626V19.8651H19.8662Z" fill="#CCCCCC"/>
</svg>
