<svg width="28" height="26" viewBox="0 0 28 26" fill="none" xmlns="http://www.w3.org/2000/svg">
<path d="M10.5467 23.335C11.6667 23.6491 12.7984 23.8333 14 23.8333C17.0942 23.8333 20.0617 22.6919 22.2496 20.6603C24.4375 18.6286 25.6667 15.8731 25.6667 13C25.6667 11.5773 25.3649 10.1686 24.7786 8.85422C24.1923 7.53986 23.333 6.3456 22.2496 5.33964C21.1663 4.33367 19.8801 3.53569 18.4647 2.99126C17.0492 2.44684 15.5321 2.16663 14 2.16663C12.468 2.16663 10.9509 2.44684 9.5354 2.99126C8.11994 3.53569 6.83381 4.33367 5.75046 5.33964C3.56254 7.37128 2.33337 10.1268 2.33337 13C2.33337 17.6041 5.44837 21.5583 9.84671 23.1183C9.74171 22.2733 9.63671 20.8758 9.84671 19.9116L11.1884 14.56C11.1884 14.56 10.85 13.9316 10.85 12.935C10.85 11.44 11.8534 10.3241 12.9967 10.3241C14 10.3241 14.4667 11.0066 14.4667 11.8841C14.4667 12.8158 13.8017 14.1483 13.4634 15.4266C13.265 16.4883 14.07 17.42 15.2367 17.42C17.3134 17.42 18.9234 15.3616 18.9234 12.4583C18.9234 9.85829 16.9167 8.08163 14.035 8.08163C10.745 8.08163 8.80837 10.3566 8.80837 12.7508C8.80837 13.6825 9.13504 14.625 9.67171 15.2425C9.77671 15.3075 9.77671 15.3941 9.74171 15.5566L9.40338 16.7375C9.40338 16.9216 9.27504 16.9866 9.07671 16.8566C7.58337 16.25 6.72004 14.2783 6.72004 12.6858C6.72004 9.26246 9.33337 6.15329 14.3734 6.15329C18.3867 6.15329 21.5134 8.82913 21.5134 12.3825C21.5134 16.1091 19.0284 19.0991 15.47 19.0991C14.3384 19.0991 13.23 18.5358 12.8334 17.875L12.0517 20.4425C11.7834 21.3741 11.0484 22.62 10.5467 23.3675V23.335Z" fill="#CCCCCC"/>
</svg>
