<svg width="26" height="26" viewBox="0 0 26 26" fill="none" xmlns="http://www.w3.org/2000/svg">
<path d="M21.2692 8.6635C21.2832 8.85309 21.2832 9.04159 21.2832 9.23009C21.2832 14.9988 16.8925 21.6462 8.86825 21.6462C6.39608 21.6462 4.09941 20.9301 2.16675 19.6864C2.51775 19.7265 2.85575 19.7406 3.22083 19.7406C5.18491 19.7453 7.09336 19.0886 8.63858 17.8762C7.72795 17.8597 6.8452 17.5592 6.11359 17.0168C5.38197 16.4744 4.83801 15.717 4.55766 14.8504C4.82741 14.8905 5.09825 14.9176 5.38208 14.9176C5.77316 14.9176 6.16641 14.8634 6.5315 14.7692C5.54324 14.5696 4.65459 14.034 4.01667 13.2532C3.37874 12.4725 3.03092 11.495 3.03233 10.4868V10.4326C3.61408 10.7565 4.289 10.9591 5.004 10.9862C4.40501 10.5881 3.91386 10.048 3.57437 9.41403C3.23487 8.78003 3.05759 8.07185 3.05833 7.35267C3.05833 6.54234 3.27391 5.79917 3.652 5.15134C4.74848 6.50011 6.11604 7.60353 7.66611 8.39013C9.21618 9.17674 10.9142 9.62899 12.6502 9.71759C12.583 9.39259 12.5418 9.05567 12.5418 8.71767C12.5415 8.14455 12.6542 7.57698 12.8734 7.04743C13.0926 6.51788 13.414 6.03672 13.8193 5.63146C14.2245 5.2262 14.7057 4.90478 15.2353 4.68559C15.7648 4.46639 16.3324 4.35372 16.9055 4.354C18.1622 4.354 19.2964 4.8805 20.0937 5.732C21.0707 5.54309 22.0075 5.18646 22.8627 4.67792C22.5371 5.6863 21.855 6.54137 20.9442 7.08292C21.8106 6.9841 22.6574 6.75624 23.4564 6.40692C22.8596 7.27694 22.1201 8.03988 21.2692 8.6635Z" fill="#CCCCCC"/>
</svg>
